<?xml version="1.0" encoding="utf-8"?>
<!-- Generator: Adobe Illustrator 24.2.1, SVG Export Plug-In . SVG Version: 6.00 Build 0)  -->
<!DOCTYPE svg PUBLIC "-//W3C//DTD SVG 1.1//EN" "http://www.w3.org/Graphics/SVG/1.1/DTD/svg11.dtd" [
	<!ENTITY ns_extend "http://ns.adobe.com/Extensibility/1.0/">
	<!ENTITY ns_ai "http://ns.adobe.com/AdobeIllustrator/10.0/">
	<!ENTITY ns_graphs "http://ns.adobe.com/Graphs/1.0/">
	<!ENTITY ns_vars "http://ns.adobe.com/Variables/1.0/">
	<!ENTITY ns_imrep "http://ns.adobe.com/ImageReplacement/1.0/">
	<!ENTITY ns_sfw "http://ns.adobe.com/SaveForWeb/1.0/">
	<!ENTITY ns_custom "http://ns.adobe.com/GenericCustomNamespace/1.0/">
	<!ENTITY ns_adobe_xpath "http://ns.adobe.com/XPath/1.0/">
]>
<svg version="1.1" id="Layer_1" xmlns:x="&ns_extend;" xmlns:i="&ns_ai;" xmlns:graph="&ns_graphs;" focusable="false"
	 xmlns="http://www.w3.org/2000/svg" xmlns:xlink="http://www.w3.org/1999/xlink" x="0px" y="0px" viewBox="0 0 496 512"
	 style="enable-background:new 0 0 496 512;" xml:space="preserve">
<style type="text/css">
	.st0{fill:#6495ED;}
</style>
<metadata>
	<sfw  xmlns="&ns_sfw;">
		<slices></slices>
		<sliceSourceBounds  bottomLeftOrigin="true" height="496" width="496" x="0" y="8"></sliceSourceBounds>
	</sfw>
</metadata>
<path class="st0" d="M248,8C111,8,0,119,0,256s111,248,248,248s248-111,248-248S385,8,248,8z M236.7,248.2
	c-2.9,4.8-8.1,7.8-13.7,7.8h-0.3c-4.2,0-8.3,1.7-11.3,4.7l-5.7,5.7c-3.1,3.1-3.1,8.2,0,11.3l5.7,5.7c3,3,4.7,7.1,4.7,11.3v9.4
	c0,8.8-7.2,16-16,16h-6.1c-6.1,0-11.6-3.4-14.3-8.9L157,265.9c-2.4-4.9-8.9-5.9-12.8-2.1l-19.5,19.5c-3,3-7.1,4.7-11.3,4.7H50.8
	c-1.7-10.4-2.8-21.1-2.8-32c0-110.3,89.7-200,200-200c21.5,0,42.2,3.5,61.6,9.8l-50.2,38.5c-5.1,3.4-4.6,11.1,0.9,13.8l10.8,5.4
	c5.4,2.7,8.8,8.3,8.8,14.3V216c0,4.4-3.6,8-8,8h-3.1c-3,0-5.8-1.7-7.1-4.4c-1.6-3.1-6-3.3-7.8-0.3L236.7,248.2L236.7,248.2z
	 M408,358.4c0,4.2-1.7,8.3-4.7,11.3l-9.6,9.6c-3,3-7.1,4.7-11.3,4.7h-15.2c-4.2,0-8.3-1.7-11.3-4.7l-13-13c-6.6-6.6-16.3-9.3-25.4-7
	l-21.3,5.3c-1.3,0.3-2.6,0.5-3.9,0.5H282c-4.2,0-8.3-1.7-11.3-4.7l-11.9-11.9c-1.5-1.5-2.3-3.5-2.3-5.7v-10.2c0-3.3,2-6.2,5-7.4
	l39.3-15.7c2-0.8,3.9-1.8,5.6-3l23.7-16.9c1.4-1,3-1.5,4.6-1.5h12.1c3.2,0,6.1,1.9,7.4,4.9l5.4,12.9c0.6,1.5,2.1,2.5,3.7,2.5h3.8
	c1.8,0,3.4-1.2,3.8-2.9l4.2-14.5c0.5-1.7,2.1-2.9,3.8-2.9h6.1c2.2,0,4,1.8,4,4v12.9c0,2.1,0.8,4.2,2.3,5.7l11.9,11.9
	c3,3,4.7,7.1,4.7,11.3L408,358.4L408,358.4z"/>
</svg>
